<svg xmlns="http://www.w3.org/2000/svg" xmlns:xlink="http://www.w3.org/1999/xlink" width="500" zoomAndPan="magnify" viewBox="0 0 375 374.999991" height="500" preserveAspectRatio="xMidYMid meet" version="1.0"><defs><g/><clipPath id="484bcbea81"><path d="M 51.5625 2.53125 L 324.984375 2.53125 L 324.984375 374.226562 L 51.5625 374.226562 Z M 51.5625 2.53125 " clip-rule="nonzero"/></clipPath></defs><rect x="-37.5" width="450" fill="#ffffff" y="-37.499999" height="449.999989" fill-opacity="1"/><rect x="-37.5" width="450" fill="#ffffff" y="-37.499999" height="449.999989" fill-opacity="1"/><path fill="#ffc39b" d="M 184.011719 372.027344 C 180.972656 372.34375 180.097656 372.554688 177.722656 372.558594 C 151.8125 372.59375 118.59375 339.867188 102.59375 317.859375 C 97.976562 312.375 95.328125 303.277344 94.429688 289.945312 C 93.738281 277.023438 90.445312 265.050781 87.253906 253.027344 L 85.230469 256.425781 C 78.910156 267.066406 64.109375 259.695312 69.363281 236.261719 L 68.285156 236.367188 C 67.800781 234.878906 66.898438 233.5625 66.019531 232.417969 C 58.097656 222.265625 55.113281 210.011719 56.363281 205.785156 C 49.753906 186.445312 53.9375 171.871094 67.40625 182.660156 C 73.097656 187.222656 69.472656 185.242188 69.984375 177.324219 C 68.125 171.539062 67.222656 165.917969 68.09375 159.90625 C 65.859375 154.097656 63.996094 144.996094 65.753906 138.992188 C 64.027344 134.710938 63.105469 130.96875 62.734375 125.753906 C 58.914062 120.382812 59.269531 112.851562 60.824219 106.464844 C 58.90625 97.726562 61.476562 88.152344 66 80.429688 C 68.226562 53.859375 98.851562 32.496094 123.253906 22.0625 C 145.703125 3.542969 162.554688 1.042969 187.953125 7.285156 C 199.375 4.515625 211.257812 4.289062 222.3125 6.589844 C 247.101562 4.746094 265.859375 23.207031 264.144531 35.921875 C 263.652344 39.574219 263.484375 37.683594 267.339844 37.679688 C 272.109375 37.671875 281.511719 41.179688 286.207031 49.257812 C 292.636719 53.503906 298.90625 59.960938 299.652344 67.640625 C 314.671875 87.121094 319.304688 114.128906 313.09375 134.324219 C 315.632812 147.675781 316.027344 165.953125 305.839844 174.835938 C 304.972656 187.339844 304.027344 186.425781 308.445312 180.820312 C 313.09375 174.917969 323.441406 169.375 323.367188 187.832031 C 323.324219 193.136719 322.59375 197.207031 321.414062 200.972656 C 322.308594 223.214844 312.175781 227.296875 309.90625 234.988281 C 310.117188 236.476562 310.417969 238.554688 310.558594 240.800781 C 311.261719 251.460938 304.628906 256.175781 300.699219 256.179688 C 298.316406 256.183594 296.054688 252.371094 293.449219 248.675781 C 289.191406 314.726562 288.367188 303.300781 243.945312 357.992188 C 243.457031 358.460938 237.679688 362.828125 233.066406 365.414062 C 216.921875 374.066406 210.449219 371.402344 197.847656 371.421875 C 196.15625 371.421875 184.015625 373.78125 184.011719 372.027344 " fill-opacity="1" fill-rule="nonzero"/><path fill="#e9a273" d="M 279.667969 234.648438 C 277.5625 241.925781 273.5 248.355469 268.894531 254.433594 C 262.664062 259.5 259.246094 270.542969 250.273438 270.925781 C 244.445312 271.171875 241.347656 267.742188 221.570312 249.675781 C 216.105469 244.683594 212.933594 237.339844 214.042969 230.015625 C 214.84375 224.71875 217.671875 221.671875 223.175781 224.875 C 229.796875 228.730469 238.050781 229.664062 245.363281 227.386719 C 240.136719 217.792969 224.929688 218.164062 218.960938 209.011719 C 228.808594 205.902344 238.300781 224.257812 272.742188 200.171875 C 279.539062 202.988281 283.617188 221.007812 279.667969 234.648438 Z M 240.484375 339.710938 C 240.425781 339.59375 240.367188 339.476562 240.304688 339.359375 C 241.183594 323.320312 239.246094 312.871094 254.066406 294.835938 C 251.6875 307.644531 249.308594 320.449219 246.925781 333.253906 C 244.953125 335.761719 243.46875 338.835938 240.484375 339.710938 Z M 198.019531 168.09375 C 195.71875 161.132812 198.9375 153.414062 205.164062 149.554688 C 206.089844 148.976562 207.058594 148.460938 208.054688 148.011719 C 206.355469 145.984375 203.078125 146.980469 200.800781 148.324219 C 186.011719 157.046875 183.074219 161.074219 167.761719 148.835938 C 163.496094 145.425781 158.492188 142.046875 153.066406 142.652344 C 161.675781 147.195312 168 157.203125 170.816406 167.179688 C 172.089844 171.6875 172.417969 182.148438 167.855469 181.097656 C 153.929688 177.890625 121.890625 174.300781 112.074219 175.996094 C 105.222656 177.175781 104.140625 178.730469 98.972656 183.507812 C 88.550781 157.691406 135.144531 144.957031 112.34375 109.804688 C 110.507812 121.046875 105.335938 132.121094 96.886719 141.132812 C 98.554688 128.363281 99 111.121094 110.402344 101.785156 C 123.882812 90.75 145.761719 96.980469 157.144531 96.257812 C 157.144531 96.257812 165.511719 98.421875 196.664062 107.980469 C 197.679688 108.292969 198.90625 108.886719 198.859375 109.949219 C 208.132812 99.214844 221.363281 92.046875 235.375 89.9375 C 279.441406 93.007812 259.648438 115 261.015625 127.472656 C 261.898438 135.511719 263.777344 141.261719 271.875 153.917969 C 275.382812 159.40625 275.347656 171.535156 274.253906 178 C 264.972656 177.179688 242.417969 174.117188 233.511719 176.855469 C 222.058594 180.375 202.875 182.800781 198.019531 168.09375 Z M 193.996094 162.6875 C 194.710938 160.917969 195.652344 159.25 196.726562 157.667969 C 195.121094 161.292969 192.519531 166.367188 193.996094 162.6875 Z M 201.292969 207.242188 C 196.785156 215.046875 200.769531 225.121094 198.496094 233.84375 C 197.769531 236.617188 196.410156 239.238281 196.082031 242.085938 C 195.316406 248.761719 200.292969 255.589844 197.976562 261.894531 C 196.164062 266.820312 188.367188 272.699219 175.503906 265.464844 C 175.832031 266.855469 176.226562 268.230469 176.632812 269.601562 C 176.535156 269.554688 176.441406 269.488281 176.339844 269.464844 C 176.339844 269.464844 175.902344 268.152344 175.21875 267.300781 C 175.996094 264.644531 173.511719 261.617188 170.691406 261.714844 C 167.375 261.828125 168.382812 264.34375 164.222656 264.367188 C 162.054688 261.351562 162.058594 256.726562 164.222656 254.421875 C 167.3125 251.128906 172.0625 253.039062 175.296875 249.527344 C 175.164062 250.890625 174.996094 252.25 174.820312 253.585938 C 185.539062 243.589844 171.691406 235.042969 175.578125 201.28125 L 174.5625 201.441406 C 174.96875 199.816406 175.941406 198.828125 177.417969 197.910156 C 184.277344 193.65625 193.160156 196.6875 200.5625 199.910156 C 204.394531 201.582031 203.378906 203.628906 201.292969 207.242188 Z M 322.957031 178.839844 C 320.863281 172.566406 307.644531 170.832031 304.875 187.941406 C 296.960938 123.875 318.449219 70.652344 247.078125 58.40625 C 204.949219 51.175781 163.246094 56.453125 155.707031 60.191406 C 141.460938 54.316406 125.652344 51.382812 110.984375 56.484375 C 93.867188 62.433594 75.386719 82.582031 70.085938 99.105469 C 64.042969 117.964844 69.792969 150.53125 75.261719 169.566406 C 75.917969 171.851562 77.003906 173.652344 79.257812 172.90625 C 77.605469 179.988281 76.890625 186.308594 78.675781 192.859375 C 77.777344 203.941406 80.578125 232.074219 85.714844 245.648438 C 88.523438 253.070312 92.710938 259.878906 96.101562 267.046875 C 107.996094 292.1875 111.464844 327.449219 136.664062 344.394531 C 127.78125 327.285156 123.222656 307.945312 123.515625 288.660156 C 125.355469 290.082031 126.828125 291.976562 127.757812 294.109375 C 126.46875 286.585938 125.101562 278.847656 121.074219 272.363281 C 114.21875 261.324219 78.695312 238.878906 87.972656 205.714844 C 93.332031 208.773438 99.816406 208.914062 106.167969 208.371094 C 108.664062 210.230469 111.40625 211.753906 114.328125 212.816406 C 114.535156 208.523438 108.488281 204.988281 111.082031 200.949219 C 122.605469 204.0625 122.5 217.230469 155.199219 206.058594 C 147.769531 212.683594 139.300781 216.671875 126.835938 212.636719 C 129.410156 215.269531 133 216.882812 136.675781 217.058594 C 139.691406 217.203125 141.5 218.996094 138.875 220.414062 C 134.523438 222.765625 129.660156 224.039062 124.726562 224.335938 C 142.0625 230.585938 154.921875 224.375 167.425781 212.871094 C 166.253906 233.363281 171.101562 228.136719 174.164062 237.355469 L 174.34375 238.351562 C 174.980469 252.585938 157.773438 243.316406 155.347656 258.683594 C 149.863281 266.765625 144.527344 276.285156 146.371094 285.226562 C 150.441406 281.113281 155.472656 277.957031 160.941406 276.085938 C 162.03125 275.714844 169.980469 273.480469 170.996094 273.582031 C 172.929688 273.773438 175.128906 273.695312 176.023438 271.976562 C 176.464844 271.816406 176.789062 271.761719 177.175781 271.382812 C 179.488281 278.566406 183.925781 292.007812 190.796875 294.253906 C 192.128906 294.691406 193.503906 293.761719 193.746094 292.375 C 194.675781 287.078125 196.792969 280.890625 200.515625 278.113281 C 211.753906 280.46875 221.410156 289.921875 223.445312 301.316406 C 207.191406 303.644531 195.347656 299.804688 222.207031 305.886719 C 218.226562 314.347656 207.355469 316.410156 198.066406 317.34375 C 185.21875 318.640625 171.023438 319.421875 160.058594 313.355469 C 173.285156 324.832031 148.699219 336.308594 151.851562 348.804688 C 152.007812 339.230469 190.917969 328.785156 221.527344 340.234375 C 224.714844 341.425781 226.054688 345.230469 224.59375 348.308594 C 223.191406 351.261719 221.191406 354.175781 219.488281 355.71875 C 211.089844 363.304688 200.835938 355.898438 192.964844 357.234375 C 188.898438 357.929688 185.355469 360.304688 181.613281 362.042969 C 171.394531 366.792969 163.019531 366.742188 156.078125 357.855469 C 160.722656 366.839844 166.667969 368.796875 176.621094 370.546875 C 185.882812 372.179688 226.242188 374.863281 232.570312 361.859375 C 237.496094 360.765625 242.292969 357.480469 243.140625 352.476562 C 264.628906 331.902344 263.640625 312.402344 269.65625 301.832031 C 275.292969 291.917969 289.4375 280.777344 292.617188 248.550781 C 292.707031 248.394531 292.796875 248.234375 292.890625 248.082031 C 294.789062 252.398438 298.109375 256.058594 302.566406 257.363281 C 297.429688 241.066406 305.796875 242.441406 305.734375 238.144531 C 308.371094 239.519531 309.832031 242.839844 309.066406 245.71875 C 310.496094 241.453125 310.164062 236.761719 311.507812 232.472656 C 314.265625 223.660156 321.359375 221.804688 323.28125 183.242188 C 323.355469 181.761719 323.421875 180.242188 322.957031 178.839844 " fill-opacity="1" fill-rule="nonzero"/><path fill="#e9a273" d="M 59.316406 191.589844 C 56.363281 205.785156 61.195312 224.839844 67.058594 229.378906 C 66.140625 217.269531 72.621094 208.792969 69.746094 197.042969 C 68.960938 193.832031 67.171875 190.71875 64.6875 188.601562 C 62.484375 186.726562 59.90625 188.753906 59.316406 191.589844 " fill-opacity="1" fill-rule="nonzero"/><path fill="#ffdbc3" d="M 162.042969 347.617188 C 158.742188 351.703125 161.792969 354.878906 165.59375 354.671875 C 167.992188 354.546875 170.121094 353.183594 172.230469 352.035156 C 178.457031 348.648438 185.535156 346.855469 192.617188 346.871094 C 197.195312 346.882812 200.953125 342.335938 183.542969 341.089844 C 170.417969 340.144531 165.964844 342.75 162.042969 347.617188 " fill-opacity="1" fill-rule="nonzero"/><path fill="#ffdbc3" d="M 157.460938 296.046875 C 160.03125 296.132812 167.492188 294.539062 169.847656 293.519531 C 179.683594 289.253906 179.402344 284.636719 175.75 279.878906 C 166.757812 268.15625 140.777344 295.496094 157.460938 296.046875 " fill-opacity="1" fill-rule="nonzero"/><path fill="#ffdbc3" d="M 186.378906 249.6875 C 182.085938 236 194.519531 230.035156 186.480469 207.957031 C 184.855469 203.496094 182.296875 204.261719 182.085938 209.007812 C 179.917969 257.613281 185.625 233.714844 178.925781 256.171875 C 175.535156 267.542969 190.136719 267.660156 189 257.425781 C 188.699219 254.710938 187.195312 252.292969 186.378906 249.6875 " fill-opacity="1" fill-rule="nonzero"/><path fill="#ffdbc3" d="M 108.5625 224.238281 C 98.363281 211.464844 91.832031 237.175781 113.199219 246.664062 C 131.164062 254.636719 151.460938 247.019531 148.058594 239.769531 C 146.730469 236.933594 142.722656 237.179688 139.609375 237.46875 C 127.941406 238.546875 115.878906 233.40625 108.5625 224.238281 " fill-opacity="1" fill-rule="nonzero"/><path fill="#ffdbc3" d="M 126.792969 144.210938 C 119.4375 142.761719 108.429688 149.816406 105.082031 158.714844 C 103.414062 163.15625 107.757812 165.578125 112.007812 163.480469 C 115.097656 161.957031 119.183594 159.910156 125.070312 156.992188 C 135.628906 151.753906 133.109375 145.457031 126.792969 144.210938 " fill-opacity="1" fill-rule="nonzero"/><path fill="#ffdbc3" d="M 135.820312 129.882812 C 133.121094 125.300781 137.246094 120.851562 139.714844 116.550781 C 145.628906 106.234375 140.738281 102.171875 139.855469 101.550781 C 139.757812 101.480469 139.671875 101.457031 139.554688 101.480469 C 138.769531 101.652344 135.523438 102.714844 132.734375 105.695312 C 124.945312 114.03125 120.699219 131.117188 122.097656 134.484375 C 124.101562 139.320312 143.621094 140.492188 138.484375 133.109375 C 137.683594 131.960938 136.53125 131.085938 135.820312 129.882812 " fill-opacity="1" fill-rule="nonzero"/><path fill="#ffdbc3" d="M 206.457031 156.148438 C 201.390625 162.898438 205.78125 169.152344 210.261719 168.789062 C 216.660156 168.273438 216.265625 159.792969 220.550781 155.878906 C 223.316406 153.359375 227.4375 153.183594 230.859375 151.667969 C 239.875 147.683594 220.691406 137.1875 206.457031 156.148438 " fill-opacity="1" fill-rule="nonzero"/><path fill="#f7f8fc" d="M 112.105469 198.285156 C 112.105469 198.285156 118.203125 190.832031 136.421875 190.515625 C 154.644531 190.195312 159.316406 198.21875 159.316406 198.21875 C 151.871094 211.644531 128.875 216.882812 112.109375 200.691406 L 112.105469 198.285156 " fill-opacity="1" fill-rule="nonzero"/><path fill="#f7f8fc" d="M 215.289062 196.242188 C 215.289062 196.242188 221.652344 189.148438 239.605469 188.351562 C 257.558594 187.550781 263.851562 196.175781 263.851562 196.175781 C 248.992188 217.363281 219.144531 208.472656 215.289062 196.242188 " fill-opacity="1" fill-rule="nonzero"/><path fill="#541900" d="M 313.417969 100.402344 L 313.941406 99.410156 C 312.722656 78.945312 302.527344 74.492188 299.769531 63.78125 C 297.691406 55.703125 290.714844 48.828125 282.183594 47.183594 C 277.519531 34.695312 263.675781 40.566406 263.917969 31.933594 C 263.957031 30.652344 263.414062 29.382812 262.546875 28.457031 C 262.425781 26.140625 261.285156 25.820312 259.546875 24.394531 C 255.070312 20.71875 257.851562 17.847656 242.542969 10.304688 C 237.601562 7.871094 231.828125 4.910156 223.679688 7.285156 C 214.5 4.117188 199.464844 2.992188 186.128906 6.414062 L 186.285156 7.394531 C 174.238281 4.605469 156.574219 0.300781 143.230469 9.707031 C 135.265625 12.230469 127.804688 16.289062 121.449219 21.71875 C 109.082031 26.304688 98.703125 33.957031 90.910156 43.347656 C 79.65625 51.65625 66.203125 66.867188 65.1875 80.257812 L 67.640625 79.46875 C 62.960938 87.054688 59.46875 95.472656 61.019531 104.605469 C 59.984375 109.464844 60.191406 114.5625 61.757812 119.265625 C 60.878906 127.003906 62.917969 134.421875 65.960938 141.707031 C 65.152344 144.8125 65.648438 148.035156 66.441406 151.316406 C 64.988281 152.363281 66.414062 157.921875 66.734375 159.777344 C 66.925781 160.878906 67.183594 161.605469 68.316406 161.859375 C 68.277344 165.117188 67.351562 168.378906 67.886719 171.589844 C 68.242188 173.695312 69.214844 175.664062 69.492188 177.777344 C 70.058594 182.074219 68.128906 184.273438 76.582031 192.414062 C 76.859375 189.675781 77.140625 186.9375 77.417969 184.199219 C 78.96875 181.386719 79.023438 177.792969 77.394531 175.015625 C 75.808594 166.445312 74.882812 159.273438 77.558594 148.976562 C 78.675781 144.679688 83.25 132.496094 77.003906 130.367188 C 85.8125 111.558594 87.011719 102.546875 93.625 96.410156 C 88.949219 96.703125 81.914062 100.253906 78.703125 103.671875 C 79.679688 101.105469 81.027344 98.699219 82.613281 96.464844 C 86.863281 92.507812 91.328125 88.8125 96.359375 85.949219 C 100.917969 83.355469 105.988281 81.339844 109.082031 77.230469 C 121.085938 76.078125 131.03125 82.488281 121.738281 77.488281 C 126.207031 79.304688 133.773438 84.46875 137.628906 81.789062 C 153.085938 92.753906 156.011719 102.464844 145.757812 81.542969 C 162.542969 89.542969 156.6875 89.039062 153.253906 80.179688 C 155.660156 79.640625 163.359375 87.554688 165.03125 89.367188 C 163.453125 84.640625 163.839844 86.472656 165.21875 89.199219 C 166.15625 91.054688 167.699219 92.675781 167.988281 94.730469 C 168.175781 93.023438 168.226562 91.308594 168.214844 89.589844 C 168.40625 89.703125 168.601562 89.800781 168.804688 89.886719 C 169.160156 90.980469 169.539062 92.019531 170.699219 92.347656 C 170.777344 92.546875 170.8125 92.640625 170.785156 92.382812 C 171.019531 92.433594 171.261719 92.441406 171.503906 92.363281 C 171.199219 91.074219 170.761719 89.371094 171.058594 88.191406 C 172.207031 89.523438 173.0625 91.109375 173.539062 92.804688 C 173.59375 90.898438 173.558594 88.988281 173.433594 87.082031 C 174.0625 87.191406 174.660156 87.5 175.109375 87.957031 C 174.648438 85.324219 173.949219 82.746094 173.148438 80.199219 C 182.480469 93.207031 177.460938 104.644531 182.9375 85.265625 C 184.269531 85.035156 185.679688 85.265625 186.871094 85.910156 C 186.625 85.21875 187.757812 84.78125 188.375 85.183594 C 188.984375 85.582031 189.269531 86.339844 189.808594 86.835938 C 192.519531 89.332031 196.070312 84.273438 199.203125 85.34375 L 199.757812 84.085938 C 203.15625 85.070312 210.296875 84.542969 216.800781 81.464844 C 219.761719 81.632812 221.550781 80.808594 223.191406 78.335938 C 223.339844 78.109375 230.425781 74.484375 230.6875 74.347656 C 228.765625 75.621094 233.730469 74.480469 235.828125 73.550781 C 235.03125 75.246094 234.621094 77.125 234.628906 79 C 238.40625 76.128906 242.648438 73.867188 247.140625 72.332031 C 246.019531 73.332031 245.1875 74.644531 244.769531 76.085938 C 257.964844 70.734375 268.546875 73.242188 275.074219 74.566406 L 274.113281 75.652344 C 271.328125 76.0625 268.714844 77.539062 266.929688 79.710938 C 272.679688 81.519531 278.746094 83.535156 282.632812 88.144531 C 280.507812 88.773438 276.648438 89.441406 278.214844 90.753906 C 279.441406 91.785156 281.25 92.210938 281.988281 93.632812 C 282.28125 94.195312 282.359375 94.847656 282.550781 95.453125 C 282.902344 96.589844 283.640625 97.550781 284.355469 98.5 C 287.113281 102.171875 289.59375 106.042969 291.921875 110 C 288.855469 105.828125 284.28125 102.765625 279.214844 101.6875 C 287.125 107.820312 293.105469 116.414062 296.109375 125.972656 C 294.359375 125.472656 292.785156 124.367188 291.71875 122.882812 C 295.1875 134.101562 294.535156 127.253906 281.339844 122.460938 C 282.78125 124.132812 284.003906 125.996094 284.960938 127.992188 C 284.117188 127.398438 283.035156 127.152344 282.015625 127.328125 C 287.320312 134.394531 291.378906 142.285156 295.335938 150.199219 C 293.039062 147.820312 290.304688 145.886719 287.933594 143.574219 C 289.761719 146.835938 290.914062 150.476562 291.300781 154.199219 C 290.988281 153.957031 290.578125 153.855469 290.191406 153.917969 C 292.066406 154.78125 291.289062 154.25 291.03125 155.742188 C 291.257812 155.21875 290.472656 154.636719 290.035156 155 C 298.203125 174.410156 299.621094 172.105469 300.234375 178.945312 C 299.957031 178.308594 299.527344 177.742188 298.996094 177.304688 C 295.171875 177.949219 295.101562 171.484375 301.589844 202.222656 C 302.992188 198.898438 303.207031 195.277344 305.929688 176.289062 C 306.261719 173.988281 306.570312 174.074219 308.015625 172.585938 C 313.664062 166.761719 314.625 142.691406 313.179688 135.125 C 311.902344 139.230469 312.085938 137.929688 311.101562 135.914062 C 315.394531 134.4375 317.390625 110.953125 313.417969 100.402344 " fill-opacity="1" fill-rule="nonzero"/><path fill="#9d7d74" d="M 61.726562 119.148438 L 61.757812 119.265625 C 60.878906 127.003906 62.917969 134.421875 65.960938 141.707031 C 65.152344 144.8125 65.648438 148.035156 66.441406 151.316406 C 64.988281 152.363281 66.414062 157.921875 66.734375 159.777344 C 66.925781 160.878906 67.183594 161.605469 68.316406 161.859375 C 68.277344 165.117188 67.351562 168.378906 67.886719 171.589844 C 68.242188 173.695312 69.214844 175.664062 69.492188 177.777344 C 69.796875 180.113281 69.417969 181.855469 70.320312 184.242188 C 67.953125 170.136719 70.140625 155.292969 76.550781 142.511719 C 74.769531 144.410156 72.984375 146.308594 71.207031 148.210938 C 72.046875 141.824219 74.082031 135.609375 77.136719 129.941406 C 77.171875 129.828125 77.199219 129.730469 77.234375 129.621094 C 75.339844 131.789062 73.445312 133.960938 71.550781 136.132812 C 71.390625 130.394531 72.875 124.621094 75.78125 119.675781 C 73.675781 122.441406 71.5625 125.210938 69.457031 127.976562 C 71.835938 119.75 75.484375 111.886719 80.226562 104.757812 C 76.347656 108.433594 72.46875 112.113281 68.585938 115.792969 C 71.402344 105.238281 76.519531 95.3125 83.480469 86.90625 L 75.363281 96.03125 C 73.046875 98.632812 71.195312 101.652344 70.105469 104.964844 L 70.097656 104.992188 C 68.640625 109.460938 63.933594 115.027344 61.726562 119.148438 " fill-opacity="1" fill-rule="nonzero"/><path fill="#9d7d74" d="M 232.984375 10.003906 C 238.554688 11.949219 239.511719 15.472656 245.078125 17.417969 C 239.972656 12.523438 236.734375 9.863281 229.964844 7.835938 C 235.410156 7.535156 250.472656 16.015625 262.546875 28.457031 C 256.457031 15.789062 243.722656 10.964844 238.320312 8.34375 C 234.304688 6.671875 229.628906 5.550781 223.679688 7.285156 C 214.5 4.117188 199.464844 2.992188 186.128906 6.414062 L 186.191406 6.816406 C 189.546875 8.351562 192.855469 9.980469 196.058594 11.808594 C 189.628906 8.878906 182.890625 6.675781 175.992188 5.195312 C 165.398438 3.300781 153.125 2.730469 143.230469 9.707031 C 135.265625 12.230469 127.804688 16.289062 121.449219 21.71875 C 111.390625 25.449219 102.675781 31.230469 95.566406 38.304688 C 95.960938 38.140625 96.328125 37.921875 96.722656 37.765625 C 96.125 38.128906 95.554688 38.53125 94.964844 38.902344 C 93.554688 40.339844 92.183594 41.8125 90.910156 43.347656 C 85.644531 47.234375 64.769531 62.941406 65.28125 79.546875 C 72.507812 56.613281 94.964844 38.902344 118.324219 35.539062 C 108.648438 39.210938 92.082031 51.136719 90.742188 53.910156 C 95.957031 52.109375 101.144531 51.339844 103.167969 52.207031 C 95.851562 53.902344 95.851562 53.902344 92.101562 55.582031 C 82.054688 62.199219 73.003906 70.316406 65.28125 79.546875 C 65.257812 79.78125 65.207031 80.023438 65.1875 80.257812 L 67.640625 79.46875 C 63.382812 86.371094 60.15625 93.96875 60.765625 102.164062 C 61.191406 100.878906 61.617188 99.601562 62.152344 98.253906 C 65.007812 91.042969 69.578125 82.566406 75.839844 78.003906 C 78.003906 76.433594 80.382812 75.101562 82.976562 74.453125 C 78.957031 77.242188 75.554688 80.914062 73.082031 85.136719 C 73.800781 84.875 74.519531 84.613281 75.242188 84.351562 C 71.847656 86.871094 68.664062 89.722656 66.164062 93.132812 C 63.660156 96.535156 61.859375 100.53125 61.425781 104.738281 L 60.5 108.4375 C 60.257812 111.722656 60.574219 115.039062 61.484375 118.207031 L 61.71875 117.402344 C 62.289062 107.207031 70.542969 94.480469 77.8125 87.3125 C 76.792969 88.910156 74.71875 93.574219 72.957031 97.777344 C 76.148438 92.417969 79.339844 87.058594 82.53125 81.703125 C 79.707031 83.722656 76.882812 85.738281 74.058594 87.757812 C 83.292969 72.746094 99.292969 62.09375 116.691406 59.378906 C 110.355469 59.253906 103.238281 57.761719 97.855469 61.105469 C 100.003906 59.335938 108.660156 49.925781 119.652344 48.179688 C 114.957031 48.582031 110.296875 49.386719 105.761719 50.675781 C 115.746094 42.492188 136.054688 41.207031 137.433594 40.90625 C 135.351562 40.402344 133.261719 39.925781 131.210938 39.296875 C 145.566406 36.511719 160.441406 36.425781 174.828125 39.042969 C 163.578125 33.972656 151.449219 30.871094 139.148438 29.921875 C 150.324219 26.121094 173.335938 19.785156 194.160156 38.90625 C 187.84375 22.351562 166.347656 20.078125 163.183594 19.320312 C 151.3125 16.484375 138.34375 15.335938 127.300781 20.527344 C 132.191406 17.25 137.199219 13.96875 142.824219 12.234375 C 148.441406 10.503906 154.449219 10.394531 160.300781 10.996094 C 164.191406 11.394531 168.046875 12.101562 171.828125 13.109375 C 174.707031 13.875 177.554688 14.820312 180.171875 16.246094 C 182.765625 17.660156 185.082031 19.515625 187.378906 21.359375 C 189.996094 23.460938 192.644531 25.605469 195.03125 27.964844 C 192.496094 25.238281 189.957031 22.511719 187.421875 19.785156 C 198.011719 22.378906 207.777344 28.253906 215.039062 36.398438 C 210.351562 30.351562 205.667969 24.296875 200.980469 18.25 C 207.445312 21.195312 213.914062 24.144531 220.382812 27.09375 C 219.90625 26.480469 219.429688 25.867188 218.953125 25.257812 C 215.136719 22.453125 211.324219 19.65625 207.507812 16.855469 C 208.742188 17.078125 209.949219 17.402344 211.171875 17.6875 C 204.167969 12.910156 196.328125 9.359375 188.082031 7.402344 C 205.4375 8.101562 233.007812 25.796875 241.628906 33.105469 C 234.839844 23.820312 226.917969 18.699219 216.496094 14.898438 C 231.164062 11.082031 247.101562 20.976562 251.386719 27.632812 C 248.859375 19.664062 240.085938 14.53125 232.984375 10.003906 " fill-opacity="1" fill-rule="nonzero"/><path fill="#280c00" d="M 274.113281 75.652344 C 273.546875 75.738281 272.996094 75.890625 272.449219 76.058594 C 280.113281 77.359375 287.183594 81.886719 291.5 88.367188 C 291.527344 88.234375 291.566406 88.105469 291.597656 87.976562 C 289.621094 79.746094 284.019531 72.445312 276.535156 68.5 C 273.234375 66.765625 269.640625 65.660156 266.015625 64.789062 C 261.421875 63.683594 256.675781 62.929688 251.980469 63.445312 C 255.957031 58.882812 262.742188 58.105469 268.773438 58.589844 C 270.417969 58.722656 272.058594 58.921875 273.671875 59.269531 C 281.152344 60.867188 287.585938 65.617188 292.191406 71.785156 C 288.460938 63.648438 280.972656 57.226562 272.230469 55.210938 C 270.214844 54.742188 268.085938 54.550781 266.054688 54.84375 C 265.105469 55.078125 264.160156 55.308594 263.238281 55.613281 C 264.132812 55.199219 265.085938 54.984375 266.054688 54.84375 C 274.375 52.796875 283.351562 53.578125 291.195312 57.035156 C 291.039062 56.230469 269.636719 47.863281 260.535156 47.296875 C 263.042969 42.621094 276.832031 44.757812 281.949219 46.667969 C 281.484375 45.542969 273.984375 41.585938 270.746094 40.992188 C 267.367188 40.367188 263.660156 39.921875 260.683594 41.644531 C 262.753906 38.484375 262.667969 34.265625 261.273438 30.753906 C 260.835938 29.65625 260.261719 28.632812 259.636719 27.640625 C 259.359375 30.820312 258.949219 33.988281 258.234375 37.101562 C 255.367188 34.429688 253.027344 31.191406 251.386719 27.632812 C 251.382812 30.976562 251.382812 34.320312 251.378906 37.667969 C 249.480469 34.605469 247.582031 31.542969 245.679688 28.476562 C 246.363281 32.277344 246.578125 36.15625 246.316406 40.003906 C 244.269531 35.75 242.226562 31.492188 240.179688 27.238281 C 242.324219 35.105469 241.972656 43.636719 239.1875 51.300781 C 238.410156 45.085938 236.171875 39.0625 232.703125 33.851562 C 235.441406 40.929688 235.328125 49.070312 232.390625 56.074219 C 232.152344 49.089844 229.960938 42.183594 226.136719 36.335938 C 228.707031 40.929688 228.832031 46.582031 227.554688 51.691406 C 226.277344 56.796875 223.710938 61.476562 221.089844 66.039062 C 223.503906 55.304688 221.023438 43.566406 214.472656 34.730469 C 215.523438 40.910156 215.214844 47.3125 213.582031 53.363281 C 212.960938 49.460938 211.636719 45.671875 209.6875 42.238281 C 213.464844 52.246094 212.757812 63.859375 207.789062 73.332031 C 205.378906 77.929688 201.96875 81.96875 197.929688 85.21875 C 198.359375 85.175781 198.785156 85.199219 199.203125 85.34375 L 199.757812 84.085938 C 203.15625 85.070312 210.296875 84.542969 216.800781 81.464844 C 219.761719 81.632812 221.550781 80.808594 223.191406 78.335938 C 223.339844 78.109375 230.425781 74.484375 230.6875 74.347656 C 228.765625 75.621094 233.730469 74.480469 235.828125 73.550781 C 235.03125 75.246094 234.621094 77.125 234.628906 79 C 238.40625 76.128906 242.648438 73.867188 247.140625 72.332031 C 246.019531 73.332031 245.1875 74.644531 244.769531 76.085938 C 257.964844 70.734375 268.546875 73.242188 275.074219 74.566406 L 274.113281 75.652344 " fill-opacity="1" fill-rule="nonzero"/><path fill="#280c00" d="M 286.425781 92.066406 C 284.085938 85.015625 278.519531 79.160156 271.667969 76.335938 C 269.839844 77.046875 268.179688 78.195312 266.929688 79.710938 C 272.679688 81.519531 278.746094 83.535156 282.632812 88.144531 C 280.507812 88.773438 276.648438 89.441406 278.214844 90.753906 C 279.441406 91.785156 281.25 92.210938 281.988281 93.632812 C 282.28125 94.195312 282.359375 94.847656 282.550781 95.453125 C 282.902344 96.589844 283.640625 97.550781 284.355469 98.5 C 285.078125 99.464844 285.742188 100.476562 286.429688 101.46875 C 286.953125 100.523438 287.390625 99.542969 287.859375 98.574219 C 287.527344 96.371094 287.128906 94.183594 286.425781 92.066406 " fill-opacity="1" fill-rule="nonzero"/><path fill="#b7736c" d="M 179.582031 304.570312 C 183.160156 304.722656 186.144531 303.890625 189.675781 304.378906 C 200.441406 305.859375 220.488281 303.445312 231.101562 294.976562 C 221.398438 297.429688 210.8125 292.914062 198.238281 295.425781 C 194.082031 296.257812 195.390625 299.285156 191.183594 299.773438 C 188.757812 300.058594 184.996094 298.300781 182.902344 297.042969 C 172.960938 291.058594 165.691406 302.296875 149.40625 300.972656 C 156.589844 305.660156 173.429688 304.300781 179.582031 304.570312 " fill-opacity="1" fill-rule="nonzero"/><path fill="#eba38f" d="M 214.046875 302.117188 C 206.242188 302.480469 200.820312 305.03125 193 305.042969 C 189.375 305.046875 187.488281 306.09375 183.894531 305.734375 C 176.050781 304.957031 160.027344 306.90625 148.183594 301.769531 C 150.519531 304.066406 156.75 310.175781 158.59375 312.421875 C 163.25 318.078125 164.507812 320.316406 192.972656 319.324219 C 214.910156 318.5625 217.800781 309.574219 222.398438 306.746094 C 224.941406 305.179688 235.300781 295.863281 231.523438 295.257812 C 228.382812 298.105469 218.664062 301.898438 214.046875 302.117188 " fill-opacity="1" fill-rule="nonzero"/><path fill="#000000" d="M 198.976562 306.222656 C 207.808594 304.070312 225.511719 302.980469 231.523438 295.257812 C 232.96875 296.257812 234.34375 297.421875 235.480469 298.851562 C 235.140625 293.882812 228.386719 290.554688 224.152344 291.304688 C 226.980469 292.105469 228.136719 293.003906 231.101562 294.976562 C 224.644531 299.21875 213.1875 302.253906 204.335938 302.617188 C 198.464844 302.832031 193.589844 304.429688 189.675781 304.378906 C 186.894531 304.449219 185.105469 303.382812 182.265625 303.679688 C 171.304688 304.828125 160.304688 305.4375 149.40625 300.972656 C 150.5 298.183594 151.585938 296.324219 153.320312 293.808594 C 147.429688 295.558594 144.191406 304.140625 147.644531 309.960938 C 147.660156 307.027344 148.148438 304.398438 149.050781 301.929688 C 152.605469 305.574219 182.648438 310.203125 198.976562 306.222656 " fill-opacity="1" fill-rule="nonzero"/><path fill="#000000" d="M 176.394531 325.242188 C 188.371094 327.632812 178.160156 324.242188 167.894531 334.289062 C 190.96875 324.679688 204.101562 329.65625 209.652344 328.144531 C 208.121094 326.796875 206.335938 326.183594 204.519531 325.894531 C 202.679688 325.535156 183.617188 324.4375 176.394531 325.242188 " fill-opacity="1" fill-rule="nonzero"/><path fill="#000000" d="M 285.3125 212.902344 C 292.917969 244.558594 264.535156 265.425781 255.832031 291.121094 C 263.691406 281.070312 258.3125 285.011719 257.101562 308.949219 C 256.882812 313.257812 254.386719 321.9375 250.625 329.8125 C 265.992188 314.710938 252.402344 294.484375 272.160156 269.988281 C 284.304688 254.933594 293.335938 232.757812 285.3125 212.902344 " fill-opacity="1" fill-rule="nonzero"/><path fill="#000000" d="M 133.515625 319.671875 C 131.839844 321.652344 130.746094 324.242188 130.558594 327.40625 C 122.453125 311.953125 129.164062 283.605469 112.214844 276.46875 C 128.695312 288.84375 117.539062 317.375 131.152344 332.957031 C 132.648438 338.773438 136.5625 344.195312 141.28125 348.070312 C 135.5 338.902344 130.25 329.757812 133.515625 319.671875 " fill-opacity="1" fill-rule="nonzero"/><path fill="#000000" d="M 308.445312 212.066406 C 308.492188 212.046875 309.714844 215.34375 309.914062 217.519531 C 310.40625 221.34375 309.460938 226.285156 307.464844 228.074219 C 306.519531 228.980469 305.808594 228.894531 305.140625 230.316406 C 304.359375 229.574219 303.429688 228.996094 302.347656 228.847656 C 306.09375 234.679688 306.296875 241.398438 306.042969 248 C 309.464844 244.285156 309.550781 235.5625 305.832031 231.042969 C 306.824219 230.703125 307.710938 230.429688 308.769531 229.683594 C 311.78125 227.285156 313.160156 221.6875 312.679688 217.121094 C 311.953125 210.214844 308.578125 210.894531 311.0625 201.820312 C 310.46875 201.984375 309.941406 202.320312 309.464844 202.730469 C 309.347656 191.558594 317.007812 181.351562 318.992188 181.074219 C 314.75 178.957031 302.355469 195.285156 308.445312 212.066406 " fill-opacity="1" fill-rule="nonzero"/><path fill="#000000" d="M 73.773438 235.050781 C 72.039062 232.664062 70.910156 234.195312 69.417969 229.933594 C 67.390625 224.054688 69.609375 219.367188 70.625 215.003906 C 77.304688 197.347656 61.53125 180.867188 58.136719 186.214844 C 61.945312 184.765625 70 195.59375 69.480469 207.753906 C 68.742188 207.101562 67.839844 206.6875 66.878906 206.632812 C 70.511719 213.601562 67.160156 214.074219 66.042969 221.992188 C 65.277344 227.363281 67.238281 235.003906 73.140625 235.824219 C 69.84375 240.339844 69.5 249.203125 73.707031 252.582031 C 72.300781 245.402344 74.003906 237.851562 76.648438 233.296875 C 75.492188 233.511719 74.546875 234.199219 73.773438 235.050781 " fill-opacity="1" fill-rule="nonzero"/><path fill="#000000" d="M 217.351562 215.960938 C 215.054688 215.371094 208.46875 212.296875 208.328125 208.171875 C 207.742188 211.023438 210.46875 213.773438 212.796875 215.515625 C 216.433594 218.179688 218.628906 218.195312 221.078125 218.832031 C 226.296875 220.128906 229.726562 221.769531 236.949219 225.269531 C 223.78125 215.214844 220.289062 216.808594 217.351562 215.960938 " fill-opacity="1" fill-rule="nonzero"/><path fill="#000000" d="M 203.410156 242.03125 C 205.886719 243.8125 207.75 246.226562 209.566406 248.589844 C 208.210938 248.082031 206.710938 248.007812 205.46875 248.613281 C 215.738281 248.269531 218.371094 265.9375 207.171875 270.898438 C 207.878906 270.589844 219.316406 268.378906 215.550781 265.457031 C 220.554688 260.050781 212.820312 245.066406 203.410156 242.03125 " fill-opacity="1" fill-rule="nonzero"/><path fill="#000000" d="M 204.617188 268.191406 C 210.546875 269.097656 210.488281 263.832031 203.074219 264.164062 C 202.566406 261.867188 201.347656 259.757812 199.734375 259.761719 C 200.421875 259.761719 201.050781 265.96875 199.652344 266.53125 C 195.582031 268.171875 194.558594 270.722656 183.34375 270.738281 C 187.765625 272.980469 193.542969 271.972656 197.023438 270.40625 C 195.113281 272.855469 191.632812 274.652344 182.964844 273.242188 C 180.925781 272.601562 179.699219 269.832031 178.449219 268.019531 L 178.488281 267.976562 C 174.960938 260.96875 173.085938 255.527344 176.9375 248.492188 C 171.984375 249.480469 168.058594 256.316406 170.820312 263.324219 C 167.296875 264.242188 166.828125 268.511719 168.410156 268.488281 C 169.847656 268.46875 172.355469 268.414062 173.070312 268.878906 C 171.738281 270.558594 165.253906 270.082031 164.007812 267.582031 C 158.988281 257.484375 164.269531 248.761719 170.558594 249.300781 C 165.378906 246.449219 154.253906 255.898438 163.015625 268.890625 C 165.980469 274.609375 168.316406 272.875 174.546875 273.269531 C 174.851562 273.859375 175.128906 274.464844 175.308594 275.109375 C 175.511719 274.621094 175.65625 273.179688 176.023438 272.890625 C 178.664062 276.761719 180.46875 277.335938 182.917969 278.066406 C 183.824219 280.660156 184.125 283.667969 185.820312 285.796875 C 185.664062 284.683594 185.910156 283.527344 186.484375 282.5625 C 186.421875 285.980469 187.046875 289.664062 187.421875 290.246094 C 188.207031 291.472656 190.902344 292.199219 192.351562 292.359375 C 191.171875 290.761719 190.410156 288.851562 190.164062 286.878906 C 189.5 281.617188 195.492188 283.257812 198.664062 274.269531 C 202.0625 272.242188 203.546875 273.089844 206.546875 270.65625 C 205.132812 270.5625 203.558594 269.152344 204.617188 268.191406 " fill-opacity="1" fill-rule="nonzero"/><path fill="#000000" d="M 228.417969 313.191406 C 219.292969 318.433594 223.472656 315.550781 213.304688 322.765625 C 220.078125 321.378906 224.601562 318.128906 228.417969 313.191406 " fill-opacity="1" fill-rule="nonzero"/><path fill="#000000" d="M 219.554688 326.863281 C 226.296875 326.007812 232.292969 322.382812 236.125 315.5 C 232.289062 318.878906 224.023438 324.457031 219.554688 326.863281 " fill-opacity="1" fill-rule="nonzero"/><path fill="#000000" d="M 206.996094 319.289062 C 218.824219 316.484375 216.421875 308.488281 224.972656 306.09375 C 213.507812 307.183594 220.808594 317.109375 197.347656 316.808594 C 170.027344 315.054688 173.992188 322.863281 158.277344 312.140625 C 161.359375 316.753906 165.042969 320.191406 170.363281 320.769531 C 177.683594 323.75 182.367188 320.128906 173.683594 324.726562 C 185.925781 318.488281 203.609375 330.195312 213.316406 319.015625 C 211.269531 319.628906 209.140625 319.558594 206.996094 319.289062 " fill-opacity="1" fill-rule="nonzero"/><path fill="#000000" d="M 155.742188 63.492188 C 154.402344 62.929688 153.019531 62.46875 151.601562 62.214844 C 162.53125 68.085938 169.664062 80.460938 174.898438 92.105469 C 175.824219 90.648438 175.878906 88.917969 175.746094 87.304688 C 176.976562 90.394531 177.945312 93.621094 178.488281 97.207031 C 185.246094 79.074219 157.550781 49.699219 127.648438 56.164062 C 137.984375 55.636719 147.238281 58.207031 155.742188 63.492188 " fill-opacity="1" fill-rule="nonzero"/><path fill="#000000" d="M 168.871094 95.484375 C 170.660156 74.800781 126.953125 51.136719 104.851562 69.394531 C 126.140625 57.03125 158.160156 72.980469 168.871094 95.484375 " fill-opacity="1" fill-rule="nonzero"/><path fill="#000000" d="M 151.347656 66.507812 C 154.847656 70.429688 158.878906 74.066406 162.882812 79.078125 C 168.566406 86.410156 167.445312 87.90625 171.601562 93.234375 C 175.632812 83.574219 161.277344 71.714844 151.347656 66.507812 " fill-opacity="1" fill-rule="nonzero"/><path fill="#000000" d="M 136.238281 70.042969 C 155.378906 81.589844 157.0625 85.984375 164.242188 92.816406 C 166.148438 82.824219 146.550781 72.21875 136.238281 70.042969 " fill-opacity="1" fill-rule="nonzero"/><path fill="#000000" d="M 125.753906 70.792969 C 131.039062 73.164062 141.101562 77.6875 150.445312 84.664062 C 169.671875 99.351562 153.179688 73.5 125.753906 70.792969 " fill-opacity="1" fill-rule="nonzero"/><path fill="#000000" d="M 125.492188 73.136719 C 128.417969 75.152344 130.339844 76.347656 138.523438 81.570312 C 146.910156 87.050781 147.582031 87.878906 151.992188 89.050781 C 151.296875 81.960938 132.457031 74.585938 125.492188 73.136719 " fill-opacity="1" fill-rule="nonzero"/><path fill="#000000" d="M 93.625 96.410156 C 86.863281 94.265625 76.472656 104.746094 74.960938 114.125 C 84.535156 100.808594 88.988281 98.46875 93.625 96.410156 " fill-opacity="1" fill-rule="nonzero"/><g clip-path="url(#484bcbea81)"><path fill="#000000" d="M 322.128906 194.980469 C 321.679688 193.292969 321.128906 191.632812 320.453125 190.046875 C 320.453125 190.082031 320.226562 201.507812 320.25 202.402344 C 320.421875 219.832031 312.449219 227.894531 311.027344 231.046875 C 310.992188 230.785156 310.953125 230.523438 310.917969 230.265625 C 309.675781 231.886719 309.664062 233.804688 309.769531 235.476562 C 309.730469 235.84375 309.542969 237.550781 309.90625 237.523438 C 310.285156 243.269531 309.667969 249.933594 304.894531 253.160156 C 299.421875 257.132812 299.242188 253.183594 295.066406 249.535156 C 295.074219 249.394531 295.085938 249.25 295.09375 249.105469 C 295.96875 250.4375 297.210938 250.925781 298.339844 250.710938 C 295.878906 243.949219 297.125 235.746094 301.445312 230.265625 C 300.320312 227.054688 298.449219 222.917969 297.980469 219.160156 C 301.058594 203.121094 298.832031 204.957031 301.464844 211.578125 C 304.019531 203.507812 305.527344 194.570312 306.488281 186.191406 C 312.394531 172.929688 326.308594 168.804688 322.128906 194.980469 Z M 302.28125 194.933594 C 301.566406 184.214844 298.761719 179.867188 297.703125 175.570312 C 299.570312 180.578125 302.640625 189.394531 302.28125 194.933594 Z M 197.46875 84.390625 C 197.515625 84.328125 197.550781 84.257812 197.59375 84.191406 C 197.8125 84.117188 197.820312 84.101562 197.46875 84.390625 Z M 292.917969 244.558594 C 286.859375 316.574219 287.429688 300.816406 243.324219 356.046875 C 242.28125 357.359375 238.40625 360.050781 237.023438 361.011719 C 240.664062 352.546875 239.582031 343.792969 233.746094 338.546875 C 238.632812 347.011719 234.648438 354.242188 231.894531 360.601562 C 229.171875 366.878906 215.964844 370.8125 204.667969 370.488281 C 205.914062 369.855469 207.039062 368.925781 207.75 367.160156 C 201.429688 369.34375 200.78125 369.601562 198.257812 370.304688 C 189.605469 370.25 191.003906 372.214844 204.285156 364.308594 C 189.839844 367.988281 181.71875 374.617188 164.113281 367.890625 C 155.472656 364.59375 149.96875 348.996094 157.894531 340.039062 C 150.578125 344.410156 149.417969 355.421875 154.058594 363.066406 C 143.339844 356.894531 133.21875 348.140625 124.570312 339.375 C 85.609375 299.246094 105.933594 307.792969 89.480469 250.984375 C 94.15625 257.597656 100.203125 263.136719 107.386719 266.386719 C 90.496094 252.425781 73.863281 225.234375 85.507812 206.75 C 82.660156 209.917969 80.855469 214.066406 80.082031 218.441406 C 79.328125 214.125 77.101562 205.59375 88.285156 193.160156 C 83.328125 196.097656 80.570312 200.730469 78.722656 205.625 C 78.289062 196.488281 78.652344 196.46875 78.929688 193.433594 C 80.457031 179.566406 76.839844 174.765625 83.585938 162.71875 C 83.117188 162.878906 78.585938 168.429688 78.1875 169.113281 C 80.109375 163.488281 79.765625 159.15625 84.359375 153.261719 C 73.734375 160.152344 96.070312 135.28125 76.546875 154.488281 C 78.597656 150.117188 90.300781 131.421875 80.808594 140.296875 C 84.332031 134.660156 84.332031 132.875 88.0625 131.375 C 85.804688 131.113281 81.566406 133.605469 80.203125 134.773438 C 80.722656 130.671875 83.535156 125.3125 86.039062 123.195312 C 83.070312 123.332031 81.058594 124.953125 77.925781 130.347656 C 84.300781 111.332031 86.246094 105.761719 91.71875 101.714844 C 85.113281 101.804688 75.390625 116.5 76.75 120.457031 C 77.386719 118.148438 80.109375 115.605469 82.960938 112.761719 C 77.023438 122.386719 69.832031 138.980469 67.238281 154.699219 C 73.109375 140.285156 73.269531 140.421875 75.160156 136.3125 C 72.980469 142.621094 71.707031 144.160156 78.109375 138.257812 C 75.863281 141.359375 74.0625 145.246094 73.535156 149.042969 C 85.570312 133.800781 69.75 150.871094 70.648438 170.097656 C 77.164062 149.128906 73.617188 162.8125 75.03125 166.695312 C 73.042969 173.007812 72.253906 180.53125 72.4375 185.464844 C 71.371094 184.136719 72.226562 185.03125 70.828125 183.5625 C 71.660156 179.652344 70.445312 174.402344 73.21875 168.914062 C 71.859375 170.613281 70.113281 172.882812 69.554688 174.402344 C 69.234375 158.6875 71.914062 158.292969 71.835938 150.722656 C 69.269531 151.945312 67.800781 154.269531 67.082031 156.734375 C 66.710938 146.042969 66.804688 142.621094 67.679688 140.023438 C 68.402344 137.875 69.308594 135.617188 69.109375 132.558594 C 68.328125 132.960938 67.664062 133.453125 67.058594 133.992188 C 72.3125 108.714844 86.308594 83.863281 112.644531 85.34375 C 111.628906 84.800781 110.542969 84.308594 109.429688 83.871094 C 112.5625 84.054688 115.074219 84.476562 119 85.664062 C 115.902344 82.042969 115.066406 84.28125 121.109375 83.261719 C 120.21875 82.21875 119.203125 81.445312 118.132812 80.800781 C 134.816406 83.941406 146.71875 93.359375 137.191406 85.972656 C 142.617188 89.21875 147.617188 93.011719 152.976562 97.019531 C 142.613281 76.03125 103.632812 64.671875 76.25 85.457031 C 83.867188 81.207031 91.621094 78.773438 99.925781 77.863281 C 99.742188 77.96875 99.359375 78.117188 99.53125 78.167969 C 94.890625 78.902344 90.484375 80.820312 87.226562 84.253906 C 91.933594 81.921875 96.097656 81.152344 100.589844 81.125 C 99.8125 81.585938 99.125 82.265625 98.605469 83.226562 C 80.042969 87.878906 67.902344 112.746094 66.621094 134.441406 C 65.84375 135.234375 65.195312 136.117188 64.71875 137.121094 C 62.742188 120.664062 65.992188 113.019531 70.097656 104.992188 C 66.925781 105.476562 63.582031 107.996094 61.894531 114.992188 C 61.699219 104.441406 65.859375 93.394531 74.417969 85.300781 C 69.074219 88.199219 64.921875 92.921875 62.152344 98.253906 C 64.242188 86.898438 66.570312 76.582031 85.410156 60.898438 C 91.980469 55.429688 98.328125 53.902344 103.167969 52.207031 C 88.023438 53.1875 72.390625 68.292969 65.996094 77.402344 C 91.21875 20.855469 161.457031 7.792969 184.84375 29.335938 C 188.046875 32.292969 191.164062 35.171875 194.160156 38.90625 C 193.246094 23.746094 165.710938 7.03125 140.5625 14.980469 C 148.960938 13.367188 162.527344 16.714844 170.753906 19.304688 C 160.871094 17.117188 140.058594 15.992188 134.476562 16.902344 C 144.917969 12.550781 147.980469 10.929688 156.695312 10.894531 C 150.554688 7.804688 135.664062 12.550781 129.339844 18.101562 C 127.746094 18.566406 126.164062 19.082031 124.617188 19.6875 C 134.792969 12.914062 146.761719 6.839844 158.8125 5.820312 C 170.386719 4.726562 210.691406 9.398438 223.714844 33.171875 C 223.160156 29.730469 221.671875 26.449219 219.628906 23.53125 C 241.226562 35.605469 242.410156 69.386719 215.359375 81.269531 C 226.914062 73.550781 231.003906 62.117188 229.226562 52.957031 C 228.261719 67.496094 218.769531 75.640625 206.507812 81.800781 C 225.34375 66.136719 224.9375 46.460938 212.808594 25.269531 C 220.542969 45.332031 222.21875 61.761719 206.636719 76.554688 C 212.261719 68.53125 211.84375 58.996094 206.820312 52.246094 C 210.199219 62.375 207.742188 71.128906 200.289062 78.09375 C 205.042969 58.507812 188.335938 31.445312 171.546875 34.675781 C 191.054688 34.390625 205.660156 71.261719 191.867188 86.0625 C 194.574219 77.769531 192.953125 64.828125 189.324219 59.035156 C 190.296875 63.742188 190.484375 73.707031 189.148438 81.183594 C 185.664062 49.414062 143.089844 28.539062 121.683594 52.953125 C 146.351562 34.644531 172.988281 47.714844 184.113281 76.089844 C 182.183594 72.035156 178.953125 68.121094 175.683594 65.136719 C 180.535156 77.054688 177.808594 65.429688 164.25 56.257812 C 181.460938 77.605469 177.78125 81.3125 180.980469 92.546875 C 184.246094 88 181.691406 85.691406 183.988281 90.578125 C 185.453125 89.203125 186.128906 87.492188 186.300781 85.734375 C 186.550781 89.269531 186.042969 92.847656 183.839844 96.074219 C 185.472656 95.066406 186.757812 93.480469 187.667969 91.691406 C 188.171875 91.425781 188.75 91.179688 189.90625 89.828125 C 192.410156 89.140625 192.917969 88.273438 191.316406 89.816406 C 193.945312 89.121094 196.457031 88.121094 198.851562 86.886719 C 210.074219 88.351562 220.304688 84.710938 227.671875 77.984375 C 231.722656 77.644531 234.40625 75.832031 236.859375 73.039062 C 236.746094 74.125 240.886719 71.089844 241.71875 70.378906 C 239.914062 72.875 237.738281 76.597656 237.882812 79.699219 C 238.902344 77.585938 240.582031 75.769531 242.203125 74.0625 C 241.09375 75.980469 240.441406 78.105469 240.402344 80.386719 C 242.171875 78.996094 243.554688 77.527344 244.875 76.144531 C 244.328125 77.195312 244.050781 78.40625 244.214844 79.753906 C 246.832031 78.773438 247.855469 77.878906 249.804688 76.273438 C 247.65625 78.117188 245.9375 80.417969 245.070312 83.023438 C 251.394531 76.351562 261.023438 73.726562 269.519531 75.761719 C 266.445312 75.855469 263.273438 76.5 262.492188 79.398438 C 261.507812 79.628906 260.535156 79.902344 259.621094 80.289062 C 267.734375 79.847656 273.832031 82.828125 280.066406 88 C 275.601562 85.660156 270.585938 83.914062 266.132812 86.296875 C 268.859375 87.96875 271.277344 88.742188 273.800781 89.496094 C 272.390625 89.527344 271.007812 89.902344 269.945312 90.699219 C 275.46875 90.3125 279.507812 94.855469 284.261719 100.617188 C 295.171875 113.679688 305.308594 129.136719 304.332031 146.039062 C 301.734375 130.960938 292.128906 101.300781 276.9375 101.832031 C 279.683594 103.394531 282.648438 105.738281 286.660156 111.21875 C 285.097656 110.433594 283.359375 109.996094 281.464844 110.160156 C 283.464844 113.078125 285.347656 114.589844 287.535156 116.535156 C 285.367188 114.9375 283.480469 113.828125 280.683594 113.503906 C 290.773438 124.144531 296.628906 135.015625 301.933594 148.628906 C 305.730469 158.554688 304.582031 164.378906 303.988281 172.011719 C 302.902344 167.390625 303.039062 166.488281 301.789062 161.890625 C 301.246094 159.851562 301.011719 159.136719 301.804688 161.773438 C 301.996094 150.101562 294.882812 129.875 284.589844 126.167969 C 286.5 132.367188 289.136719 133.535156 294.449219 143.363281 C 296.199219 146.691406 302.042969 159.757812 297.308594 149.492188 C 293.992188 142.128906 288.53125 132.441406 281.363281 128.730469 C 284.539062 137.253906 288.253906 138.933594 295.539062 153.589844 C 293.523438 150.734375 290.9375 148.203125 287.359375 146.992188 C 290.449219 155.488281 297.558594 159.257812 303.519531 178.046875 L 302.917969 185.804688 C 301.597656 174.152344 295.429688 155.175781 285.691406 149.449219 C 288.4375 159.234375 295.53125 165.730469 297.648438 176.972656 C 291.011719 167.898438 298.015625 188.699219 299.226562 193.003906 C 299.21875 193.0625 299.210938 193.148438 299.203125 193.207031 C 298.023438 195.324219 298.492188 197.570312 298.964844 201.023438 C 297.714844 217.144531 295.597656 213.757812 292.917969 244.558594 Z M 75.265625 184.964844 C 78.074219 179.945312 78.234375 177.796875 77.800781 181.109375 C 77.765625 181.0625 76.617188 192.460938 76.582031 192.414062 C 76.589844 190.589844 74.210938 188.378906 73.347656 187.214844 C 76.546875 160.417969 74.695312 180 75.265625 184.964844 Z M 76.429688 259.628906 C 73.277344 258.441406 70.710938 255.222656 69.515625 251.84375 C 66.878906 245.039062 69.984375 239.605469 68.136719 235.046875 L 68.101562 235.15625 C 66.578125 229.695312 55.707031 220.332031 57.03125 195.238281 C 56.3125 198.320312 56.121094 199.789062 55.882812 202.042969 C 48.582031 174.886719 62.453125 175.347656 70.59375 187.476562 L 70.597656 187.355469 C 80.199219 200.195312 73.207031 203.128906 77.480469 224.601562 C 62.410156 184.359375 78.101562 231.988281 76.738281 236.4375 C 81.269531 241.742188 82.839844 249.890625 80.644531 256.742188 C 82.636719 257.039062 84.886719 255.191406 84.761719 250.417969 C 86.050781 254.785156 81.5 261.554688 76.429688 259.628906 Z M 254.753906 39.917969 C 254.316406 39.113281 253.789062 38.367188 253.152344 37.742188 C 254.0625 41.207031 253.738281 43.78125 252.953125 46.285156 C 253.003906 41.558594 251.488281 37 248.882812 33.476562 C 250.359375 39.5 250.777344 45.527344 248.449219 51.304688 C 250.027344 38.394531 241.46875 22.613281 216.496094 14.898438 C 236.738281 25.828125 250.058594 38.175781 242.59375 59.894531 C 243.351562 55.59375 243.511719 51.648438 243.277344 47.410156 C 240.769531 56.558594 238.742188 66.078125 233.390625 71.191406 C 244.558594 53.949219 238.113281 29.957031 218.710938 22.285156 C 211.855469 13.535156 199.796875 8.621094 189.089844 5.84375 C 218.304688 2.511719 248.148438 10.851562 254.753906 39.917969 Z M 262.640625 35.019531 C 262.144531 33.578125 261.324219 32.210938 260.050781 31.457031 C 261.191406 33.65625 260.953125 36.414062 260.476562 38.847656 C 260.367188 35.484375 259.632812 31.535156 258.171875 27.792969 C 257.066406 54.726562 263.027344 17.550781 228.761719 6.574219 C 244.507812 9.582031 260.800781 20.175781 262.640625 35.019531 Z M 263.042969 42.621094 C 263.878906 41.605469 264.53125 40.4375 265.015625 39.171875 C 269.464844 40.214844 273.363281 40.140625 280.679688 44.410156 C 275.152344 42.039062 268.160156 40.382812 262.902344 43.25 C 262.945312 43.039062 263.003906 42.832031 263.042969 42.621094 Z M 299.195312 64.5 C 285.78125 46.535156 262.128906 48.632812 249.414062 60.324219 C 240 64.730469 240.425781 68.667969 241.960938 62.773438 C 242.578125 62.257812 243.167969 61.703125 243.726562 61.125 C 245.9375 60.800781 247.78125 59.5 249.109375 57.816406 C 251.085938 57.214844 252.117188 55.929688 253.175781 54.269531 C 254.84375 53.792969 256.265625 52.664062 257.261719 51.277344 C 259.5625 50.742188 260.765625 48.828125 261.75 46.691406 C 273.917969 41.667969 294.050781 53.308594 299.195312 64.5 Z M 269.019531 71.789062 C 264.078125 70.804688 259.164062 71.09375 254.089844 73.519531 C 257.425781 71.792969 260.585938 70.960938 264.078125 70.414062 C 265.890625 70.769531 266.972656 71.085938 269.019531 71.789062 Z M 288.9375 95.070312 C 293.566406 97.410156 284.414062 81.566406 269.699219 79.226562 C 272.03125 78.667969 274.136719 78.433594 276.195312 78.246094 C 289.011719 84.804688 300.25 100.746094 301.503906 120.441406 C 296.453125 108.894531 286.617188 97.109375 283.875 94.449219 C 287.105469 96.675781 290.445312 99.410156 294.101562 104.597656 C 293.144531 101.019531 291.3125 97.882812 288.9375 95.070312 Z M 311.316406 114.910156 C 312.792969 100.039062 309.34375 80.617188 301.335938 67.644531 C 301.328125 67.484375 301.292969 67.328125 301.28125 67.171875 C 311.136719 84.433594 315.867188 105.996094 312.792969 125.703125 C 312.179688 123.484375 311.511719 121.28125 310.773438 119.101562 C 312.101562 130.46875 312.910156 128.960938 308.101562 144.671875 C 307.820312 138.222656 307.316406 131.734375 305.765625 125.457031 C 306.425781 133.96875 305.808594 143.960938 305.292969 152.921875 C 304.859375 148.914062 304.957031 150.03125 304.691406 148.253906 C 306.980469 139.464844 305.605469 130.730469 302.320312 122.421875 C 305.191406 84.601562 267.386719 59.3125 248.71875 68.160156 C 262.429688 57.632812 278.816406 57.578125 290.292969 73.09375 C 295.261719 79.945312 297.90625 86.722656 300.511719 92.625 C 293.046875 65.945312 282.769531 55.101562 259.277344 57.546875 C 278.449219 51.371094 291.648438 56.96875 300.441406 72.328125 C 300.390625 72.664062 300.363281 72.996094 300.28125 73.335938 C 301.230469 71.351562 310.847656 92.011719 311.316406 114.910156 Z M 307.667969 172.414062 C 310.21875 131.335938 304.808594 156.863281 312.792969 139.675781 C 313.589844 156.832031 310.695312 162.785156 307.667969 172.414062 Z M 323.085938 201.195312 C 324.453125 196.878906 324.996094 192.332031 325.027344 187.839844 C 325.109375 168.042969 313.019531 172.320312 307.136719 179.789062 C 307.253906 178.40625 307.355469 177.023438 307.449219 175.640625 C 317.546875 166.855469 317.289062 147.5625 314.804688 134.421875 C 320.621094 115.472656 316.902344 87.300781 301.261719 67 C 300.5 59.332031 293.820312 52.292969 287.449219 48.082031 C 282.363281 39.300781 270.804688 35.210938 265.792969 36.144531 C 267.710938 21.917969 247.449219 3.039062 222.417969 4.910156 C 211.011719 2.539062 198.636719 2.976562 187.957031 5.570312 C 163.320312 -0.496094 145.585938 1.554688 122.382812 20.625 C 98.261719 30.980469 66.574219 52.761719 64.375 79.917969 C 60.003906 87.355469 57.179688 97.515625 59.117188 106.445312 C 57.773438 111.988281 57.074219 120.636719 61.109375 126.339844 C 61.457031 131.109375 62.480469 135.328125 63.996094 139.078125 C 62.328125 144.730469 64.277344 154.621094 66.386719 160.101562 C 65.554688 165.898438 66.527344 172.023438 68.304688 177.53125 C 68.226562 178.753906 68.195312 179.574219 68.445312 181.363281 C 54.574219 170.25 46.925781 183.371094 54.621094 205.820312 C 53.90625 208.210938 54.878906 220.84375 64.699219 233.4375 C 65.835938 234.910156 66.835938 236.46875 66.960938 238.164062 L 67.238281 238.140625 C 62.328125 260.019531 79.132812 269.945312 86.660156 257.277344 C 89.671875 268.617188 92.183594 279.078125 92.769531 290.058594 C 94.296875 312.625 101.207031 318.78125 101.207031 318.78125 C 117.941406 341.820312 154.472656 378.183594 182.351562 373.871094 C 182.359375 374.351562 188.605469 374.214844 189.082031 374.1875 C 198.171875 373.445312 194.09375 372.828125 200.902344 373.195312 C 213.757812 373.914062 221.515625 373.785156 233.828125 366.894531 C 233.914062 366.960938 243.984375 360.582031 245.238281 359.042969 C 288.101562 306.261719 290.84375 314.871094 294.808594 253.492188 C 296.386719 255.734375 298.640625 258.261719 301.367188 257.785156 C 307.382812 256.792969 312.894531 250.9375 312.21875 240.695312 C 312.097656 238.796875 311.863281 236.949219 311.601562 235.113281 C 313.507812 228.753906 323.988281 223.347656 323.085938 201.195312 " fill-opacity="1" fill-rule="nonzero"/></g><path fill="#000000" d="M 113.484375 141.46875 C 100.011719 145.363281 89.597656 163.675781 89.097656 177.058594 C 95.824219 161.222656 100.007812 152.066406 113.484375 141.46875 " fill-opacity="1" fill-rule="nonzero"/><path fill="#000000" d="M 279.167969 166.863281 C 280.027344 163.617188 280.421875 157.007812 279.539062 153.910156 C 278.886719 151.765625 278.203125 146.882812 273.078125 139.503906 C 271.273438 136.90625 266.738281 133.328125 263.761719 132.078125 C 270.460938 137.859375 278.644531 157.902344 279.167969 166.863281 " fill-opacity="1" fill-rule="nonzero"/><path fill="#000000" d="M 206.933594 148.242188 C 196.035156 151.550781 190.316406 162.160156 195.492188 175.878906 C 195.449219 162.722656 195.667969 156.273438 206.933594 148.242188 " fill-opacity="1" fill-rule="nonzero"/><path fill="#000000" d="M 136.992188 209.882812 C 128.066406 210.707031 119.855469 205.785156 113.351562 199.726562 C 115.582031 198.171875 118.628906 195.945312 122.894531 193.867188 C 122.816406 195.515625 123.058594 197.109375 123.636719 198.683594 C 127.878906 196.21875 132.242188 201.40625 129.175781 205.1875 C 135.710938 208.847656 143.371094 205.933594 146.292969 199.613281 C 143.867188 201.828125 140.230469 200.054688 140.171875 197 C 140.089844 192.765625 146.160156 191.722656 147.320312 195.980469 C 147.433594 195.058594 147.488281 194.25 147.40625 193.355469 C 149.046875 193.9375 157.472656 197.386719 157.738281 199.105469 C 156.640625 202.132812 147.132812 208.910156 136.992188 209.882812 Z M 173.277344 195.621094 C 175.445312 195.46875 177.714844 194.652344 179.550781 193.613281 C 175.6875 193.4375 172.050781 193.796875 168.992188 191.726562 C 167.710938 191.019531 165.140625 189.164062 162.515625 187.460938 C 166.386719 188.539062 170.9375 189.035156 173.480469 187.25 C 174.710938 186.386719 175.078125 183.183594 174.800781 181.597656 C 174.324219 178.855469 172.277344 176.382812 169.597656 175.632812 C 169.960938 176.414062 170.175781 177.261719 170.226562 178.121094 C 168.496094 176.6875 166.542969 175.527344 164.457031 174.683594 C 165.140625 175.410156 165.644531 176.308594 165.917969 177.269531 C 163.136719 176.335938 154.867188 174.125 146.222656 175.949219 C 147.050781 175.570312 147.550781 173.457031 148.339844 172.996094 C 138.65625 173.554688 112.066406 169.398438 101.3125 179.164062 C 108.195312 176.992188 100.738281 180.339844 95.503906 187.542969 C 100.234375 182.644531 106.847656 182.605469 119.09375 181.742188 C 118.820312 181.933594 112.347656 184.910156 112.085938 185.117188 C 119.921875 181.8125 126.761719 182.289062 131.054688 182.214844 C 140.9375 182.039062 151.992188 183.6875 155.679688 193.117188 C 153.929688 191.910156 152.082031 190.851562 150.183594 189.890625 C 150.410156 190.101562 150.695312 190.265625 150.910156 190.484375 C 123.148438 179.992188 97.148438 196.839844 114.871094 212.367188 C 119.273438 216.128906 119.351562 215.382812 129.453125 217.976562 C 122.449219 214.378906 121.117188 215.683594 116.136719 210.96875 C 111.769531 206.707031 111.65625 204.78125 112.164062 201.742188 C 116.277344 203.820312 122.34375 212.488281 137.140625 211.65625 C 145.257812 211.003906 154.015625 206.585938 158.09375 202.398438 C 157.878906 204.132812 157.328125 205.824219 156.4375 207.328125 C 159.621094 204.707031 162.578125 199.84375 162.105469 196.023438 C 164.664062 196.351562 164.023438 195.847656 162.761719 197.210938 C 165.855469 196.582031 168.929688 194.929688 171.984375 203.492188 C 172.320312 211.882812 165.539062 219.160156 167.25 226.816406 C 167.476562 219.570312 173.777344 214.363281 175.054688 206.007812 C 176.488281 210.539062 175.855469 214.375 175.34375 219.414062 C 173.921875 233.890625 178.738281 240.238281 175.914062 246.113281 C 178.207031 242.550781 177.179688 238.03125 176.933594 232.679688 C 176.230469 223.074219 177.910156 219.203125 178.355469 212.773438 C 178.820312 205.15625 174.898438 197.640625 173.277344 195.621094 " fill-opacity="1" fill-rule="nonzero"/><path fill="#000000" d="M 220.535156 201.539062 C 218.285156 199.886719 217.433594 199.113281 218.335938 196.628906 C 219.988281 195.230469 225.730469 192.742188 227.9375 191.84375 C 227.882812 193.699219 228.308594 195.464844 229.015625 197.171875 C 233.019531 194.601562 237.519531 199.617188 234.652344 203.335938 C 239.667969 205.824219 246.335938 204.691406 250.011719 199.144531 C 247.773438 199.660156 245.6875 197.957031 245.683594 195.707031 C 245.679688 192.253906 250.132812 190.851562 252.109375 193.675781 C 252.199219 192.847656 252.195312 192.007812 252.113281 191.160156 C 256.304688 192.96875 259.183594 194.886719 262.023438 196.679688 C 249.375 211.101562 235.261719 211.890625 220.535156 201.539062 Z M 264.992188 194.277344 C 265.1875 192.398438 265.566406 191.601562 264.046875 190.523438 C 261.761719 188.585938 247.789062 183.117188 237.714844 186.085938 C 236.632812 186.34375 219.816406 188.113281 218.730469 188.320312 C 220.527344 187.65625 224.972656 182.796875 231.035156 181.007812 C 232.089844 180.699219 233.472656 180.398438 235.0625 180.125 C 235.246094 180.109375 235.429688 180.089844 235.613281 180.078125 C 240.484375 179.742188 245.398438 179.484375 250.242188 180.125 C 255.082031 180.769531 259.894531 182.367188 263.726562 185.402344 C 262.519531 182.65625 260.453125 180.324219 257.929688 178.703125 C 267.261719 178.988281 276.109375 180.421875 279.753906 183.910156 C 277.515625 175.765625 259.886719 173.363281 258.355469 173.738281 C 258.835938 173.386719 261.683594 172.234375 263.238281 171.890625 C 260.28125 171.5 247.738281 167.398438 229.890625 170.726562 C 227.714844 171.132812 215.089844 174.859375 214.320312 175.863281 C 214.109375 174.5 214.878906 173.046875 216.121094 172.453125 C 213.113281 173.144531 210.363281 174.898438 208.46875 177.335938 C 208.792969 175.222656 209.746094 173.207031 211.175781 171.621094 C 206.675781 173.347656 203.394531 177.882812 203.15625 182.703125 C 202.351562 181.75 201.78125 180.597656 201.515625 179.378906 C 199.417969 185.929688 201.902344 186.347656 208.21875 188.335938 C 206.996094 192.714844 198.746094 192.808594 196.011719 193.285156 C 200.507812 195.125 203.570312 194.832031 203.570312 194.832031 C 197.507812 201.945312 200.597656 214.617188 201.203125 218.914062 C 202.511719 228.3125 200.984375 235.1875 200.671875 239.042969 C 200.441406 242.054688 198.324219 243.980469 200.113281 248.09375 C 201.941406 252.289062 202.867188 256.703125 202.410156 261.296875 C 204.644531 258.28125 203.296875 252.488281 207.132812 250.824219 C 205.558594 251 202.375 247.222656 201.699219 245.582031 C 199.941406 240.699219 202.410156 237.152344 203.222656 228.242188 C 205.316406 231.90625 208.601562 239.601562 209.671875 243.695312 C 210.425781 240.371094 209.457031 236.6875 207.667969 233.4375 C 203.621094 226.097656 203.609375 221.5 203.195312 217.199219 C 205.398438 222.703125 208.601562 226.050781 210.257812 234.304688 C 211.699219 221.976562 201.070312 217.554688 203.175781 207.714844 C 205.433594 214.351562 210.273438 219.644531 209.609375 225.980469 C 212.355469 218.585938 205.472656 210.683594 205.363281 201.9375 C 206.96875 198.71875 207.679688 198 207.886719 196.285156 C 209.742188 195.242188 209.871094 198.003906 211.753906 199.269531 C 212.21875 199.585938 213.742188 200.105469 214.460938 200.023438 C 215.371094 202.0625 217.042969 204.109375 219.644531 206.085938 C 211.960938 194.171875 229.234375 218.496094 252.320312 207.285156 C 258.847656 204.199219 259.34375 200.65625 264.710938 197.6875 C 265.367188 197.304688 265.699219 197.304688 265.886719 196.367188 C 266.007812 195.742188 265.734375 195.105469 265.367188 194.664062 C 265.242188 194.484375 264.902344 194.230469 264.992188 194.277344 " fill-opacity="1" fill-rule="nonzero"/><g fill="#ffffff" fill-opacity="1"><g transform="translate(356.654367, 14.965936)"><g/></g></g><g fill="#ffffff" fill-opacity="1"><g transform="translate(360.580148, 14.965936)"><g><path d="M 2.109375 0.078125 C 1.804688 0.078125 1.566406 -0.00390625 1.390625 -0.171875 C 1.222656 -0.335938 1.140625 -0.5625 1.140625 -0.84375 C 1.140625 -1.113281 1.222656 -1.332031 1.390625 -1.5 C 1.566406 -1.675781 1.804688 -1.765625 2.109375 -1.765625 C 2.410156 -1.765625 2.644531 -1.679688 2.8125 -1.515625 C 2.988281 -1.347656 3.078125 -1.128906 3.078125 -0.859375 C 3.078125 -0.578125 2.988281 -0.347656 2.8125 -0.171875 C 2.632812 -0.00390625 2.398438 0.078125 2.109375 0.078125 Z M 2.109375 0.078125 "/></g></g></g></svg>